<?xml version="1.0" encoding="UTF-8"?>
<!DOCTYPE svg PUBLIC "-//W3C//DTD SVG 1.1//EN" "http://www.w3.org/Graphics/SVG/1.1/DTD/svg11.dtd">
<svg xmlns="http://www.w3.org/2000/svg" version="1.1" width="3840px" height="2160px" style="shape-rendering:geometricPrecision; text-rendering:geometricPrecision; image-rendering:optimizeQuality; fill-rule:evenodd; clip-rule:evenodd" xmlns:xlink="http://www.w3.org/1999/xlink">
<g><path style="opacity:0.993" fill="#f0b90a" d="M 1917.5,88.5 C 1919.43,88.7286 1921.1,89.5619 1922.5,91C 2043.99,212.653 2165.65,334.153 2287.5,455.5C 2242.18,501.32 2196.68,546.986 2151,592.5C 2073.67,515.167 1996.33,437.833 1919,360.5C 1841.21,438.122 1763.71,515.788 1686.5,593.5C 1641.11,547.779 1595.78,502.113 1550.5,456.5C 1673.21,334.118 1795.55,211.452 1917.5,88.5 Z"/></g>
<g><path style="opacity:0.988" fill="#f0b90a" d="M 1453.5,552.5 C 1454.24,552.369 1454.91,552.536 1455.5,553C 1500.1,598.265 1544.76,643.598 1589.5,689C 1545.04,734.46 1500.21,779.627 1455,824.5C 1409.15,779.645 1363.65,734.479 1318.5,689C 1363.33,643.339 1408.33,597.839 1453.5,552.5 Z"/></g>
<g><path style="opacity:0.991" fill="#f0b90a" d="M 1918.5,552.5 C 1964.4,597.063 2010.06,642.063 2055.5,687.5C 2010.18,733.32 1964.68,778.986 1919,824.5C 1873.54,779.871 1828.04,734.871 1782.5,689.5C 1827.85,643.812 1873.19,598.146 1918.5,552.5 Z"/></g>
<g><path style="opacity:0.987" fill="#f0b90a" d="M 2382.5,552.5 C 2383.24,552.369 2383.91,552.536 2384.5,553C 2429.9,598.4 2475.23,643.733 2520.5,689C 2475.72,734.947 2430.39,780.447 2384.5,825.5C 2338.64,780.474 2293.31,734.974 2248.5,689C 2293.44,643.563 2338.11,598.063 2382.5,552.5 Z"/></g>
<g><path style="opacity:0.992" fill="#f0b90a" d="M 1685.5,784.5 C 1686.24,784.369 1686.91,784.536 1687.5,785C 1764.17,862.671 1841.34,940.171 1919,1017.5C 1996.86,939.977 2074.19,862.311 2151,784.5C 2196.68,830.014 2242.18,875.68 2287.5,921.5C 2165.14,1044.69 2042.31,1167.36 1919,1289.5C 1795.72,1167.39 1672.89,1044.72 1550.5,921.5C 1595.15,876.347 1639.99,831.347 1685,786.5C 1685.46,785.906 1685.63,785.239 1685.5,784.5 Z"/></g>
<g><path style="opacity:0.989" fill="#f0b90a" d="M 3006.5,1517.5 C 3051.49,1514.86 3095.83,1520.69 3139.5,1535C 3177.66,1549.54 3210.66,1571.54 3238.5,1601C 3213.67,1629.99 3188.67,1658.83 3163.5,1687.5C 3137.22,1663.02 3106.89,1645.19 3072.5,1634C 3009.16,1617.67 2955.33,1633.5 2911,1681.5C 2879.5,1723.17 2867.16,1770.17 2874,1822.5C 2882.78,1883.67 2914.95,1927.17 2970.5,1953C 3031.39,1973.39 3088.72,1963.06 3142.5,1922C 3150.98,1915.02 3159.31,1907.85 3167.5,1900.5C 3192.51,1925.01 3217.35,1949.68 3242,1974.5C 3242.67,1975.5 3242.67,1976.5 3242,1977.5C 3193.99,2031.76 3133.82,2062.59 3061.5,2070C 2982.23,2078.12 2911.23,2058.12 2848.5,2010C 2789.35,1959.21 2756.52,1894.71 2750,1816.5C 2744.67,1737.16 2767.67,1667.5 2819,1607.5C 2869.97,1553.77 2932.47,1523.77 3006.5,1517.5 Z"/></g>
<g><path style="opacity:0.989" fill="#f0b90a" d="M 1739.5,1524.5 C 1775.74,1524.17 1811.91,1524.5 1848,1525.5C 1925.02,1704.64 2001.19,1883.81 2076.5,2063C 2035.5,2063.67 1994.5,2063.67 1953.5,2063C 1936.78,2023.72 1920.45,1984.22 1904.5,1944.5C 1829.5,1943.17 1754.5,1943.17 1679.5,1944.5C 1663.59,1984.06 1647.59,2023.56 1631.5,2063C 1590.69,2063.99 1550.02,2063.66 1509.5,2062C 1586.28,1882.94 1662.94,1703.77 1739.5,1524.5 Z M 1791.5,1668.5 C 1793.45,1670.35 1794.95,1672.69 1796,1675.5C 1817.74,1729.54 1839.57,1783.54 1861.5,1837.5C 1815.17,1838.83 1768.83,1838.83 1722.5,1837.5C 1745.8,1781.25 1768.8,1724.92 1791.5,1668.5 Z"/></g>
<g><path style="opacity:0.99" fill="#f0b90a" d="M 94.5,1527.5 C 181.501,1527.33 268.501,1527.5 355.5,1528C 391.78,1528.65 425.78,1537.65 457.5,1555C 505.576,1586 526.076,1630.17 519,1687.5C 512.042,1730.78 489.209,1762.61 450.5,1783C 534.245,1814.65 565.078,1874.15 543,1961.5C 528.767,2000.07 502.601,2027.23 464.5,2043C 435.584,2053.86 405.75,2060.36 375,2062.5C 282.536,2062.47 189.036,2062.47 94.5,2062.5C 94.5,1884.17 94.5,1705.83 94.5,1527.5 Z M 210.5,1631.5 C 252.835,1631.33 295.168,1631.5 337.5,1632C 351.191,1632.68 364.191,1636.01 376.5,1642C 393.387,1652.09 402.054,1667.09 402.5,1687C 401.982,1712.07 389.982,1728.73 366.5,1737C 356.013,1740.13 345.346,1742.3 334.5,1743.5C 293.345,1743.49 252.011,1743.49 210.5,1743.5C 210.5,1706.17 210.5,1668.83 210.5,1631.5 Z M 210.5,1842.5 C 259.501,1842.33 308.501,1842.5 357.5,1843C 373.904,1843.61 389.571,1847.28 404.5,1854C 422.604,1864.02 431.604,1879.52 431.5,1900.5C 430.743,1929.1 416.409,1946.94 388.5,1954C 379.338,1956.14 370.338,1957.48 361.5,1958C 311.168,1958.5 260.834,1958.67 210.5,1958.5C 210.5,1919.83 210.5,1881.17 210.5,1842.5 Z"/></g>
<g><path style="opacity:0.989" fill="#f0b90a" d="M 677.5,1527.5 C 716.833,1527.5 756.167,1527.5 795.5,1527.5C 795.5,1705.83 795.5,1884.17 795.5,2062.5C 755.833,2062.5 716.167,2062.5 676.5,2062.5C 676.168,1884.1 676.501,1705.76 677.5,1527.5 Z"/></g>
<g><path style="opacity:0.987" fill="#f0b90a" d="M 952.5,1527.5 C 988.502,1527.33 1024.5,1527.5 1060.5,1528C 1143.45,1636.74 1226.29,1745.58 1309,1854.5C 1309.33,1745.83 1309.67,1637.17 1310,1528.5C 1349,1527.17 1388,1527.17 1427,1528.5C 1427.67,1706.5 1427.67,1884.5 1427,2062.5C 1393.57,2063.66 1360.07,2063.83 1326.5,2063C 1240.28,1950.45 1154.45,1837.62 1069,1724.5C 1068.5,1837.17 1068.33,1949.83 1068.5,2062.5C 1029.5,2062.5 990.5,2062.5 951.5,2062.5C 951.168,1884.1 951.501,1705.76 952.5,1527.5 Z"/></g>
<g><path style="opacity:0.989" fill="#f0b90a" d="M 2162.5,1527.5 C 2198.5,1527.33 2234.5,1527.5 2270.5,1528C 2353.67,1637.17 2436.83,1746.33 2520,1855.5C 2520.5,1746.17 2520.67,1636.83 2520.5,1527.5C 2559.5,1527.5 2598.5,1527.5 2637.5,1527.5C 2637.5,1706.17 2637.5,1884.83 2637.5,2063.5C 2603.83,2063.67 2570.17,2063.5 2536.5,2063C 2450.79,1950.41 2364.95,1837.91 2279,1725.5C 2278.5,1837.83 2278.33,1950.17 2278.5,2062.5C 2239.5,2062.5 2200.5,2062.5 2161.5,2062.5C 2161.17,1884.1 2161.5,1705.76 2162.5,1527.5 Z"/></g>
<g><path style="opacity:0.985" fill="#f0b90a" d="M 3337.5,1527.5 C 3471.83,1527.5 3606.17,1527.5 3740.5,1527.5C 3740.5,1562.83 3740.5,1598.17 3740.5,1633.5C 3644.83,1633.33 3549.17,1633.5 3453.5,1634C 3454.5,1669.43 3454.83,1704.93 3454.5,1740.5C 3538.17,1740.33 3621.83,1740.5 3705.5,1741C 3705.51,1775.96 3705.51,1811.13 3705.5,1846.5C 3621.5,1846.33 3537.5,1846.5 3453.5,1847C 3454.5,1883.76 3454.83,1920.59 3454.5,1957.5C 3551.17,1957.5 3647.83,1957.5 3744.5,1957.5C 3744.5,1992.5 3744.5,2027.5 3744.5,2062.5C 3608.6,2062.83 3472.76,2062.5 3337,2061.5C 3336.17,1883.43 3336.33,1705.43 3337.5,1527.5 Z"/></g>
</svg>
