<?xml version="1.0" encoding="UTF-8"?>
<!DOCTYPE svg PUBLIC "-//W3C//DTD SVG 1.1//EN" "http://www.w3.org/Graphics/SVG/1.1/DTD/svg11.dtd">
<svg xmlns="http://www.w3.org/2000/svg" version="1.1" width="800px" height="450px" style="shape-rendering:geometricPrecision; text-rendering:geometricPrecision; image-rendering:optimizeQuality; fill-rule:evenodd; clip-rule:evenodd" xmlns:xlink="http://www.w3.org/1999/xlink">
<g><path style="opacity:0.992" fill="#010101" d="M 18.5,132.5 C 169.833,132.5 321.167,132.5 472.5,132.5C 472.5,191.833 472.5,251.167 472.5,310.5C 321.167,310.5 169.833,310.5 18.5,310.5C 18.5,251.167 18.5,191.833 18.5,132.5 Z"/></g>
<g><path style="opacity:0.741" fill="#000000" d="M 490.5,159.5 C 495.496,160.423 500.329,160.756 505,160.5C 511.077,172.912 517.244,185.246 523.5,197.5C 529.756,185.246 535.923,172.912 542,160.5C 546.683,160.592 551.516,160.426 556.5,160C 557.731,161.183 557.731,162.349 556.5,163.5C 554.591,164.348 552.591,164.682 550.5,164.5C 550.333,178.504 550.5,192.504 551,206.5C 552.789,208.229 554.956,208.896 557.5,208.5C 557.5,209.5 557.5,210.5 557.5,211.5C 550.167,211.5 542.833,211.5 535.5,211.5C 535.5,210.5 535.5,209.5 535.5,208.5C 537.467,208.739 539.301,208.406 541,207.5C 541.667,196.167 541.667,184.833 541,173.5C 534.812,186.444 528.146,199.111 521,211.5C 519.336,209.201 517.669,206.868 516,204.5C 511,193.833 506,183.167 501,172.5C 500.333,183.833 500.333,195.167 501,206.5C 503.135,208.278 505.635,208.945 508.5,208.5C 508.5,209.5 508.5,210.5 508.5,211.5C 502.132,211.83 495.798,211.496 489.5,210.5C 491.346,209.235 493.18,207.902 495,206.5C 495.5,192.504 495.667,178.504 495.5,164.5C 492.537,164.849 490.204,163.849 488.5,161.5C 489.243,160.818 489.909,160.151 490.5,159.5 Z"/></g>
<g><path style="opacity:0.736" fill="#000000" d="M 622.5,181.5 C 626.76,178.246 630.76,174.579 634.5,170.5C 635.48,173.086 635.813,175.753 635.5,178.5C 639.167,178.5 642.833,178.5 646.5,178.5C 646.5,180.167 646.5,181.833 646.5,183.5C 642.833,183.5 639.167,183.5 635.5,183.5C 635.334,190.508 635.5,197.508 636,204.5C 636.739,205.574 637.739,206.241 639,206.5C 641.319,205.129 643.819,204.462 646.5,204.5C 646.703,206.39 646.037,207.89 644.5,209C 639.02,213.342 633.52,213.508 628,209.5C 627.5,200.84 627.334,192.173 627.5,183.5C 625.219,183.923 623.552,183.256 622.5,181.5 Z"/></g>
<g><path style="opacity:0.732" fill="#000000" d="M 574.5,176.5 C 582.064,176.198 587.897,179.198 592,185.5C 596.598,195.136 594.765,203.302 586.5,210C 579.008,213.481 571.675,213.148 564.5,209C 560.174,205.362 558.174,200.695 558.5,195C 559.092,184.583 564.425,178.417 574.5,176.5 Z M 573.5,180.5 C 579.574,181.064 583.408,184.397 585,190.5C 585.667,194.833 585.667,199.167 585,203.5C 580.991,209.043 576.158,209.877 570.5,206C 569.283,204.352 568.45,202.519 568,200.5C 567.333,195.5 567.333,190.5 568,185.5C 569.812,183.7 571.645,182.033 573.5,180.5 Z"/></g>
<g><path style="opacity:0.748" fill="#000000" d="M 622.5,181.5 C 621.577,184.423 619.577,186.423 616.5,187.5C 612.825,183.243 610.325,183.91 609,189.5C 608.333,195.167 608.333,200.833 609,206.5C 611.135,208.278 613.635,208.945 616.5,208.5C 616.5,209.5 616.5,210.5 616.5,211.5C 609.167,211.5 601.833,211.5 594.5,211.5C 594.5,210.5 594.5,209.5 594.5,208.5C 596.766,208.859 598.599,208.192 600,206.5C 600.691,198.805 600.525,191.139 599.5,183.5C 595.324,184.169 593.991,182.669 595.5,179C 599.796,178.626 603.963,177.793 608,176.5C 608.333,178.167 608.667,179.833 609,181.5C 614.007,175.551 618.507,175.551 622.5,181.5 Z"/></g>
<g><path style="opacity:0.728" fill="#000000" d="M 660.5,176.5 C 667.046,178.132 673.713,178.799 680.5,178.5C 680.5,180.167 680.5,181.833 680.5,183.5C 678.143,183.337 675.81,183.503 673.5,184C 678.409,192.615 676.409,199.281 667.5,204C 664.187,205.436 660.853,205.936 657.5,205.5C 656.614,206.325 656.281,207.325 656.5,208.5C 662.535,208.537 668.535,209.037 674.5,210C 678.592,210.917 680.592,213.417 680.5,217.5C 678.793,225.043 674.126,229.876 666.5,232C 660.606,233.037 654.939,232.371 649.5,230C 644.902,223.456 646.235,218.456 653.5,215C 645.597,210.7 645.93,206.7 654.5,203C 647.862,198.983 645.696,193.15 648,185.5C 650.677,180.308 654.844,177.308 660.5,176.5 Z M 659.5,180.5 C 660.847,181.171 662.014,181.171 663,180.5C 664.333,182.167 665.667,183.833 667,185.5C 667.667,189.833 667.667,194.167 667,198.5C 661.589,202.842 657.923,201.508 656,194.5C 654.608,189.093 655.774,184.426 659.5,180.5 Z M 656.5,216.5 C 662.335,216.124 668.002,216.79 673.5,218.5C 673.896,221.044 673.229,223.211 671.5,225C 668.619,226.179 665.786,227.346 663,228.5C 654.805,227.515 652.639,223.515 656.5,216.5 Z"/></g>
<g><path style="opacity:0.74" fill="#000000" d="M 728.5,176.5 C 734.699,178.183 741.032,178.849 747.5,178.5C 747.5,180.167 747.5,181.833 747.5,183.5C 745.473,183.338 743.473,183.505 741.5,184C 745.037,191.387 743.703,197.721 737.5,203C 732.712,204.616 728.045,205.782 723.5,206.5C 723.709,207.086 724.043,207.586 724.5,208C 731.254,208.511 737.921,209.511 744.5,211C 748.254,214.249 749.087,218.082 747,222.5C 738.554,232.905 728.221,235.238 716,229.5C 712.427,223.213 713.927,218.379 720.5,215C 713.82,210.671 714.153,206.671 721.5,203C 712.605,195.556 712.271,187.722 720.5,179.5C 723.194,178.246 725.861,177.246 728.5,176.5 Z M 727.5,180.5 C 733.591,182.075 736.257,186.075 735.5,192.5C 734.928,200.657 731.428,202.657 725,198.5C 721.074,191.608 721.908,185.608 727.5,180.5 Z M 723.5,216.5 C 728.913,216.229 734.246,216.729 739.5,218C 741.801,221.143 741.135,223.81 737.5,226C 734.378,227.904 731.045,228.571 727.5,228C 721.485,225.734 720.151,221.9 723.5,216.5 Z"/></g>
<g><path style="opacity:0.708" fill="#000000" d="M 761.5,176.5 C 771.842,176.842 777.175,182.175 777.5,192.5C 769.468,193.228 762.135,193.228 755.5,192.5C 757.433,205.549 764.266,208.882 776,202.5C 777.28,202.613 778.113,203.28 778.5,204.5C 769.184,214.58 759.684,214.914 750,205.5C 745.672,195.714 747.172,187.047 754.5,179.5C 756.885,178.339 759.219,177.339 761.5,176.5 Z M 760.5,180.5 C 765.469,180.966 768.136,183.632 768.5,188.5C 764.154,188.666 759.821,188.499 755.5,188C 756.574,185.095 758.241,182.595 760.5,180.5 Z"/></g>
<g><path style="opacity:0.711" fill="#000000" d="M 689.5,177.5 C 693.846,177.334 698.179,177.501 702.5,178C 703.931,178.465 705.097,179.299 706,180.5C 707.438,188.723 707.938,197.057 707.5,205.5C 715.808,204.288 716.475,206.122 709.5,211C 705.796,213.158 702.463,212.658 699.5,209.5C 693.659,213.826 688.159,213.493 683,208.5C 681,205.167 681,201.833 683,198.5C 687.614,194.111 693.114,191.777 699.5,191.5C 700.1,187.484 699.1,183.984 696.5,181C 695.5,180.333 694.5,180.333 693.5,181C 691.701,183.791 689.367,185.958 686.5,187.5C 683.468,186.988 682.301,185.322 683,182.5C 684.805,180.174 686.972,178.508 689.5,177.5 Z M 693.5,196.5 C 695.5,196.5 697.5,196.5 699.5,196.5C 699.5,199.5 699.5,202.5 699.5,205.5C 692.827,207.599 689.66,205.266 690,198.5C 691.302,197.915 692.469,197.249 693.5,196.5 Z"/></g>
<g><path style="opacity:1" fill="#f1f1f1" d="M 216.5,220.5 C 216.167,234.183 216.501,247.85 217.5,261.5C 218.107,261.376 218.44,261.043 218.5,260.5C 222.812,256.854 226.812,252.854 230.5,248.5C 229.311,247.571 227.978,247.238 226.5,247.5C 226.5,246.5 226.5,245.5 226.5,244.5C 232.206,244.171 237.872,244.505 243.5,245.5C 242.398,246.176 241.398,246.842 240.5,247.5C 234.214,251.006 228.548,255.506 223.5,261C 230.064,267.475 236.398,274.142 242.5,281C 243.094,281.464 243.761,281.631 244.5,281.5C 245.091,282.151 245.757,282.818 246.5,283.5C 240.202,284.496 233.868,284.83 227.5,284.5C 226.596,283.791 226.263,282.791 226.5,281.5C 228.355,281.728 229.188,281.061 229,279.5C 225.635,275.307 222.135,271.307 218.5,267.5C 218.44,266.957 218.107,266.624 217.5,266.5C 216.188,271.318 216.188,275.985 217.5,280.5C 218.919,281.451 220.585,281.784 222.5,281.5C 222.5,282.5 222.5,283.5 222.5,284.5C 215.5,284.5 208.5,284.5 201.5,284.5C 201.5,283.5 201.5,282.5 201.5,281.5C 203.591,281.682 205.591,281.348 207.5,280.5C 208.666,262.843 208.833,245.176 208,227.5C 207.617,226.944 207.117,226.611 206.5,226.5C 204.974,224.87 202.974,224.037 200.5,224C 201.737,223.768 202.737,223.268 203.5,222.5C 207.772,221.51 212.106,220.844 216.5,220.5 Z"/></g>
<g><path style="opacity:1" fill="#f6f6f7" d="M 109.5,220.5 C 110.833,220.5 112.167,220.5 113.5,220.5C 113.333,240.503 113.5,260.503 114,280.5C 116.041,281.423 118.208,281.756 120.5,281.5C 120.5,282.5 120.5,283.5 120.5,284.5C 113.167,284.5 105.833,284.5 98.5,284.5C 98.5,283.5 98.5,282.5 98.5,281.5C 100.792,281.756 102.959,281.423 105,280.5C 105.667,262.833 105.667,245.167 105,227.5C 102.426,225.998 99.5926,224.998 96.5,224.5C 96.7093,223.914 97.0426,223.414 97.5,223C 101.665,222.295 105.665,221.461 109.5,220.5 Z"/></g>
<g><path style="opacity:1" fill="#414243" d="M 216.5,220.5 C 217.167,233.833 217.833,247.167 218.5,260.5C 218.44,261.043 218.107,261.376 217.5,261.5C 216.501,247.85 216.167,234.183 216.5,220.5 Z"/></g>
<g><path style="opacity:1" fill="#b0b1b3" d="M 73.5,225.5 C 63.8276,225.334 54.1609,225.5 44.5,226C 45.7375,226.232 46.7375,226.732 47.5,227.5C 46.1667,227.5 44.8333,227.5 43.5,227.5C 43.5,226.5 43.5,225.5 43.5,224.5C 53.6806,224.173 63.6806,224.506 73.5,225.5 Z"/></g>
<g><path style="opacity:1" fill="#a3a3a4" d="M 203.5,222.5 C 202.737,223.268 201.737,223.768 200.5,224C 202.974,224.037 204.974,224.87 206.5,226.5C 204.473,226.662 202.473,226.495 200.5,226C 199.663,224.989 199.33,223.822 199.5,222.5C 200.833,222.5 202.167,222.5 203.5,222.5 Z"/></g>
<g><path style="opacity:1" fill="#f0f0f0" d="M 73.5,225.5 C 87.4914,225.968 91.9914,232.634 87,245.5C 84.6166,248.273 81.7833,250.439 78.5,252C 87.6071,253.615 93.2737,258.781 95.5,267.5C 94.4406,277.06 89.1073,282.56 79.5,284C 67.5046,284.5 55.5046,284.667 43.5,284.5C 43.5,283.5 43.5,282.5 43.5,281.5C 46.1194,281.768 48.6194,281.435 51,280.5C 51.6667,263.167 51.6667,245.833 51,228.5C 49.9887,227.663 48.8221,227.33 47.5,227.5C 46.7375,226.732 45.7375,226.232 44.5,226C 54.1609,225.5 63.8276,225.334 73.5,225.5 Z"/></g>
<g><path style="opacity:1" fill="#acadaf" d="M 61.5,227.5 C 61.5,235.5 61.5,243.5 61.5,251.5C 64.8333,251.5 68.1667,251.5 71.5,251.5C 68.0381,252.482 64.3714,252.815 60.5,252.5C 60.1739,243.983 60.5073,235.65 61.5,227.5 Z"/></g>
<g><path style="opacity:1" fill="#090909" d="M 61.5,227.5 C 74.9499,225.785 80.7832,231.452 79,244.5C 77.2845,247.717 74.7845,250.05 71.5,251.5C 68.1667,251.5 64.8333,251.5 61.5,251.5C 61.5,243.5 61.5,235.5 61.5,227.5 Z"/></g>
<g><path style="opacity:0.696" fill="#000000" d="M 489.5,231.5 C 490.473,231.987 491.473,232.487 492.5,233C 506.859,233.764 521.192,233.597 535.5,232.5C 535.5,237.5 535.5,242.5 535.5,247.5C 534.5,247.5 533.5,247.5 532.5,247.5C 532.336,244.326 531.336,241.493 529.5,239C 525.179,238.501 520.846,238.334 516.5,238.5C 516.167,252.516 516.501,266.516 517.5,280.5C 519.115,281.154 520.782,281.654 522.5,282C 523.337,283.011 523.67,284.178 523.5,285.5C 515.833,285.5 508.167,285.5 500.5,285.5C 500.33,284.178 500.663,283.011 501.5,282C 503.436,281.187 505.436,280.687 507.5,280.5C 507.667,266.829 507.5,253.163 507,239.5C 502.921,238.371 498.755,238.204 494.5,239C 493.044,241.266 492.21,243.766 492,246.5C 490.644,247.38 489.144,247.714 487.5,247.5C 487.885,242.377 488.552,237.044 489.5,231.5 Z"/></g>
<g><path style="opacity:1" fill="#eaebeb" d="M 295.5,234.5 C 297.402,237.337 298.069,240.671 297.5,244.5C 301.5,244.5 305.5,244.5 309.5,244.5C 309.5,245.833 309.5,247.167 309.5,248.5C 305.5,248.5 301.5,248.5 297.5,248.5C 297.334,258.172 297.5,267.839 298,277.5C 299.441,278.87 301.108,279.87 303,280.5C 305.126,278.623 307.626,277.623 310.5,277.5C 309.255,280.745 306.922,283.078 303.5,284.5C 297.05,287.064 292.217,285.397 289,279.5C 288.5,269.172 288.334,258.839 288.5,248.5C 287.022,248.762 285.689,248.429 284.5,247.5C 284.667,247.167 284.833,246.833 285,246.5C 289.104,242.905 292.604,238.905 295.5,234.5 Z"/></g>
<g><path style="opacity:1" fill="#aaabac" d="M 148.5,244.5 C 143.438,244.274 138.438,244.608 133.5,245.5C 133.611,244.883 133.944,244.383 134.5,244C 139.352,243.185 144.019,243.352 148.5,244.5 Z"/></g>
<g><path style="opacity:1" fill="#575859" d="M 226.5,244.5 C 232.31,243.51 238.31,243.177 244.5,243.5C 244.5,244.833 244.5,246.167 244.5,247.5C 243.167,247.5 241.833,247.5 240.5,247.5C 241.398,246.842 242.398,246.176 243.5,245.5C 237.872,244.505 232.206,244.171 226.5,244.5 Z"/></g>
<g><path style="opacity:1" fill="#afb0b1" d="M 259.5,244.5 C 265.31,243.51 271.31,243.177 277.5,243.5C 277.5,247.167 277.5,250.833 277.5,254.5C 276.521,251.375 276.187,248.042 276.5,244.5C 270.833,244.5 265.167,244.5 259.5,244.5 Z"/></g>
<g><path style="opacity:0.713" fill="#000000" d="M 637.5,243.5 C 638.267,244.172 638.934,245.005 639.5,246C 638.594,247.699 638.261,249.533 638.5,251.5C 642.106,251.211 645.606,251.544 649,252.5C 649.72,254.112 649.554,255.612 648.5,257C 644.668,256.962 641.168,257.795 638,259.5C 637.13,265.917 637.464,272.251 639,278.5C 641.957,279.814 644.79,279.48 647.5,277.5C 650.009,279.59 649.675,281.423 646.5,283C 633.209,288.562 627.543,284.062 629.5,269.5C 629.517,265.584 629.85,261.75 630.5,258C 629.207,257.51 627.873,257.343 626.5,257.5C 626.351,256.448 626.517,255.448 627,254.5C 630.759,250.911 634.259,247.245 637.5,243.5 Z"/></g>
<g><path style="opacity:1" fill="#f1f1f2" d="M 148.5,244.5 C 150.229,245.117 151.729,246.117 153,247.5C 153.333,257.5 153.667,267.5 154,277.5C 156.369,279.908 158.869,279.908 161.5,277.5C 161.833,278 162.167,278.5 162.5,279C 157.275,285.048 151.441,285.881 145,281.5C 142.683,282.412 140.516,283.412 138.5,284.5C 135.098,284.658 131.764,284.324 128.5,283.5C 120.934,275.418 122.268,268.918 132.5,264C 135.757,262.957 139.09,262.457 142.5,262.5C 143.5,262.5 144.5,262.5 145.5,262.5C 145.818,257.968 145.485,253.634 144.5,249.5C 142.947,246.746 140.614,245.913 137.5,247C 135.402,249.854 133.069,252.521 130.5,255C 126.513,255.339 125.013,253.506 126,249.5C 128.185,247.46 130.685,246.126 133.5,245.5C 138.438,244.608 143.438,244.274 148.5,244.5 Z"/></g>
<g><path style="opacity:1" fill="#e9eaea" d="M 180.5,277.5 C 183.04,279.413 185.707,279.746 188.5,278.5C 191.852,277.992 194.852,276.658 197.5,274.5C 198.583,275.365 198.749,276.365 198,277.5C 192.505,283.555 185.671,286.055 177.5,285C 171.819,282.493 168.152,278.326 166.5,272.5C 165.167,267.167 165.167,261.833 166.5,256.5C 168.189,250.641 171.856,246.474 177.5,244C 184.829,242.585 191.662,243.751 198,247.5C 199.141,250.857 197.975,252.857 194.5,253.5C 191.762,252.272 189.429,250.438 187.5,248C 182.361,245.494 178.194,246.661 175,251.5C 173,258.167 173,264.833 175,271.5C 176.626,273.805 178.46,275.805 180.5,277.5 Z"/></g>
<g><path style="opacity:1" fill="#eeeeee" d="M 259.5,244.5 C 265.167,244.5 270.833,244.5 276.5,244.5C 276.187,248.042 276.521,251.375 277.5,254.5C 277.179,256.048 276.179,256.715 274.5,256.5C 275.057,252.112 273.39,248.945 269.5,247C 266.833,246.333 264.167,246.333 261.5,247C 257.99,250.048 257.657,253.381 260.5,257C 267.334,259.333 273.5,262.833 279,267.5C 279.667,270.833 279.667,274.167 279,277.5C 276.779,280.678 273.946,283.012 270.5,284.5C 264.149,284.443 257.815,284.11 251.5,283.5C 251.802,280.941 251.468,278.607 250.5,276.5C 250.5,274.5 250.5,272.5 250.5,270.5C 251.5,270.5 252.5,270.5 253.5,270.5C 255.361,281.931 261.195,284.598 271,278.5C 272.041,275.364 271.207,272.864 268.5,271C 261.858,269.107 256.358,265.607 252,260.5C 251.333,257.167 251.333,253.833 252,250.5C 254.106,247.882 256.606,245.882 259.5,244.5 Z"/></g>
<g><path style="opacity:1" fill="#ebebec" d="M 328.5,243.5 C 341.111,241.964 349.944,246.964 355,258.5C 356.009,277.823 346.842,286.657 327.5,285C 315.413,279.319 310.913,269.819 314,256.5C 317.195,250.128 322.028,245.795 328.5,243.5 Z"/></g>
<g><path style="opacity:1" fill="#ededed" d="M 402.5,281.5 C 403.609,282.29 404.942,282.79 406.5,283C 399.5,283.667 392.5,283.667 385.5,283C 387.058,282.79 388.391,282.29 389.5,281.5C 390.117,281.389 390.617,281.056 391,280.5C 391.667,271.5 391.667,262.5 391,253.5C 386.39,248.988 381.224,248.321 375.5,251.5C 374.335,260.816 374.168,270.149 375,279.5C 375.278,280.416 375.778,281.082 376.5,281.5C 377.609,282.29 378.942,282.79 380.5,283C 373.508,283.5 366.508,283.666 359.5,283.5C 359.5,282.833 359.5,282.167 359.5,281.5C 361.467,281.739 363.301,281.406 365,280.5C 365.667,270.5 365.667,260.5 365,250.5C 362.959,249.577 360.792,249.244 358.5,249.5C 358.5,248.5 358.5,247.5 358.5,246.5C 363.757,246.124 368.757,244.791 373.5,242.5C 374.167,244.5 374.833,246.5 375.5,248.5C 381.43,243.367 388.097,242.2 395.5,245C 397.359,246.558 398.859,248.391 400,250.5C 400.333,260.5 400.667,270.5 401,280.5C 401.383,281.056 401.883,281.389 402.5,281.5 Z"/></g>
<g><path style="opacity:1" fill="#ebebeb" d="M 421.5,243.5 C 429.343,242.019 436.01,244.019 441.5,249.5C 443.882,252.793 444.882,256.46 444.5,260.5C 435.5,260.5 426.5,260.5 417.5,260.5C 419.119,278.105 427.785,282.771 443.5,274.5C 443.833,275 444.167,275.5 444.5,276C 440.11,282.03 434.11,285.197 426.5,285.5C 417.985,284.479 412.485,279.813 410,271.5C 407.145,259.196 410.978,249.863 421.5,243.5 Z"/></g>
<g><path style="opacity:1" fill="#080809" d="M 330.5,246.5 C 337.966,245.985 342.8,249.318 345,256.5C 345.988,263.668 345.322,270.668 343,277.5C 338.8,281.714 333.966,282.548 328.5,280C 326.877,277.92 325.377,275.754 324,273.5C 321.706,265.999 322.039,258.666 325,251.5C 326.73,249.598 328.563,247.931 330.5,246.5 Z"/></g>
<g><path style="opacity:1" fill="#131414" d="M 423.5,246.5 C 431.302,245.967 435.302,249.633 435.5,257.5C 429.5,257.5 423.5,257.5 417.5,257.5C 417.372,255.345 417.872,253.345 419,251.5C 420.707,249.963 422.207,248.296 423.5,246.5 Z"/></g>
<g><path style="opacity:0.676" fill="#000000" d="M 541.5,250.5 C 542.833,250.5 544.167,250.5 545.5,250.5C 545.03,254.97 546.03,255.47 548.5,252C 551.03,250.578 553.697,250.245 556.5,251C 559.311,254.294 558.978,257.294 555.5,260C 553.062,260.682 550.895,260.182 549,258.5C 547.523,259.444 546.523,260.777 546,262.5C 545.501,268.491 545.334,274.491 545.5,280.5C 547.937,280.756 550.271,281.423 552.5,282.5C 553.711,283.274 553.711,284.107 552.5,285C 545.508,285.5 538.508,285.666 531.5,285.5C 531.351,284.448 531.517,283.448 532,282.5C 533.609,281.853 535.109,281.02 536.5,280C 535.18,272.863 535.18,265.697 536.5,258.5C 535.332,256.783 533.665,256.116 531.5,256.5C 531.5,255.167 531.5,253.833 531.5,252.5C 535.04,252.247 538.373,251.581 541.5,250.5 Z"/></g>
<g><path style="opacity:0.722" fill="#000000" d="M 569.5,250.5 C 570.822,250.33 571.989,250.663 573,251.5C 573.168,260.518 573.668,269.518 574.5,278.5C 577.873,279.775 581.207,279.608 584.5,278C 585.059,277.275 585.392,276.442 585.5,275.5C 584.752,269.53 584.252,263.53 584,257.5C 582.644,256.62 581.144,256.286 579.5,256.5C 579.5,255.167 579.5,253.833 579.5,252.5C 584.186,251.963 588.853,251.296 593.5,250.5C 593.5,260.5 593.5,270.5 593.5,280.5C 596.95,279.756 598.616,281.09 598.5,284.5C 594.202,285.2 589.869,285.533 585.5,285.5C 585.657,284.127 585.49,282.793 585,281.5C 580.098,285.18 574.598,286.347 568.5,285C 566.959,283.421 565.792,281.587 565,279.5C 564.667,272.167 564.333,264.833 564,257.5C 562.644,256.62 561.144,256.286 559.5,256.5C 559.5,255.167 559.5,253.833 559.5,252.5C 563.078,252.451 566.411,251.785 569.5,250.5 Z"/></g>
<g><path style="opacity:0.689" fill="#000000" d="M 608.5,250.5 C 613.151,250.679 617.651,250.679 622,250.5C 623.431,254.635 623.931,258.968 623.5,263.5C 622.5,263.5 621.5,263.5 620.5,263.5C 620.345,256.841 617.011,254.007 610.5,255C 607.999,257.399 607.999,259.899 610.5,262.5C 615.71,264.02 620.21,266.686 624,270.5C 626.365,277.276 624.198,282.109 617.5,285C 611.705,285.99 606.038,286.157 600.5,285.5C 600.66,282.116 600.327,278.783 599.5,275.5C 599.453,274 600.119,273 601.5,272.5C 603.088,274.113 604.088,276.113 604.5,278.5C 609.431,284.172 613.765,283.839 617.5,277.5C 616.96,276.252 616.293,275.085 615.5,274C 612.209,272.403 608.875,270.903 605.5,269.5C 600.429,265.866 599.262,261.199 602,255.5C 603.965,253.45 606.132,251.783 608.5,250.5 Z"/></g>
<g><path style="opacity:1" fill="#656667" d="M 144.5,249.5 C 145.485,253.634 145.818,257.968 145.5,262.5C 144.5,262.5 143.5,262.5 142.5,262.5C 144.334,258.486 145.001,254.153 144.5,249.5 Z"/></g>
<g><path style="opacity:1" fill="#9fa0a1" d="M 73.5,255.5 C 69.5,255.5 65.5,255.5 61.5,255.5C 61.5,262.833 61.5,270.167 61.5,277.5C 60.508,270.018 60.1746,262.352 60.5,254.5C 65.0323,254.182 69.3656,254.515 73.5,255.5 Z"/></g>
<g><path style="opacity:1" fill="#080909" d="M 73.5,255.5 C 85.0323,258.571 88.199,265.571 83,276.5C 77.6892,281.146 71.5225,282.646 64.5,281C 63.2899,279.961 62.2899,278.794 61.5,277.5C 61.5,270.167 61.5,262.833 61.5,255.5C 65.5,255.5 69.5,255.5 73.5,255.5 Z"/></g>
<g><path style="opacity:1" fill="#070707" d="M 144.5,278.5 C 135.775,281.602 131.942,278.602 133,269.5C 134.039,268.29 135.206,267.29 136.5,266.5C 139.167,266.167 141.833,265.833 144.5,265.5C 144.5,269.833 144.5,274.167 144.5,278.5 Z"/></g>
<g><path style="opacity:1" fill="#606162" d="M 144.5,278.5 C 144.5,274.167 144.5,269.833 144.5,265.5C 141.833,265.833 139.167,266.167 136.5,266.5C 139.171,264.882 142.171,264.215 145.5,264.5C 145.819,269.363 145.486,274.03 144.5,278.5 Z"/></g>
<g><path style="opacity:1" fill="#636465" d="M 166.5,256.5 C 165.167,261.833 165.167,267.167 166.5,272.5C 165.883,272.389 165.383,272.056 165,271.5C 164.333,266.833 164.333,262.167 165,257.5C 165.383,256.944 165.883,256.611 166.5,256.5 Z"/></g>
<g><path style="opacity:1" fill="#434445" d="M 218.5,267.5 C 217.515,271.634 217.182,275.968 217.5,280.5C 216.188,275.985 216.188,271.318 217.5,266.5C 218.107,266.624 218.44,266.957 218.5,267.5 Z"/></g>
<g><path style="opacity:1" fill="#6e6f70" d="M 180.5,277.5 C 183.167,277.833 185.833,278.167 188.5,278.5C 185.707,279.746 183.04,279.413 180.5,277.5 Z"/></g>
<g><path style="opacity:1" fill="#898a8b" d="M 250.5,276.5 C 251.468,278.607 251.802,280.941 251.5,283.5C 257.815,284.11 264.149,284.443 270.5,284.5C 263.992,285.57 257.325,285.57 250.5,284.5C 250.5,281.833 250.5,279.167 250.5,276.5 Z"/></g>
<g><path style="opacity:1" fill="#c2c3c4" d="M 376.5,281.5 C 378.167,281.5 379.833,281.5 381.5,281.5C 381.5,282.5 381.5,283.5 381.5,284.5C 373.981,284.825 366.648,284.492 359.5,283.5C 366.508,283.666 373.508,283.5 380.5,283C 378.942,282.79 377.609,282.29 376.5,281.5 Z"/></g>
<g><path style="opacity:1" fill="#babbbc" d="M 389.5,281.5 C 388.391,282.29 387.058,282.79 385.5,283C 392.5,283.667 399.5,283.667 406.5,283C 404.942,282.79 403.609,282.29 402.5,281.5C 404.167,281.5 405.833,281.5 407.5,281.5C 407.5,282.5 407.5,283.5 407.5,284.5C 399.833,284.5 392.167,284.5 384.5,284.5C 384.5,283.5 384.5,282.5 384.5,281.5C 386.167,281.5 387.833,281.5 389.5,281.5 Z"/></g>
<g><path style="opacity:1" fill="#676769" d="M 128.5,283.5 C 131.764,284.324 135.098,284.658 138.5,284.5C 135.696,285.638 132.696,285.805 129.5,285C 128.944,284.617 128.611,284.117 128.5,283.5 Z"/></g>
<g><path style="opacity:1" fill="#474849" d="M 244.5,281.5 C 245.5,281.5 246.5,281.5 247.5,281.5C 247.5,282.833 247.5,284.167 247.5,285.5C 240.646,285.824 233.979,285.491 227.5,284.5C 233.868,284.83 240.202,284.496 246.5,283.5C 245.757,282.818 245.091,282.151 244.5,281.5 Z"/></g>
<g><path style="opacity:1" fill="#444546" d="M 359.5,281.5 C 359.5,282.167 359.5,282.833 359.5,283.5C 366.648,284.492 373.981,284.825 381.5,284.5C 374.018,285.492 366.352,285.825 358.5,285.5C 358.232,283.901 358.566,282.568 359.5,281.5 Z"/></g>
</svg>
