<?xml version="1.0" encoding="UTF-8"?>
<!DOCTYPE svg PUBLIC "-//W3C//DTD SVG 1.1//EN" "http://www.w3.org/Graphics/SVG/1.1/DTD/svg11.dtd">
<svg xmlns="http://www.w3.org/2000/svg" version="1.1" width="2560px" height="1058px" style="shape-rendering:geometricPrecision; text-rendering:geometricPrecision; image-rendering:optimizeQuality; fill-rule:evenodd; clip-rule:evenodd" xmlns:xlink="http://www.w3.org/1999/xlink">
<g><path style="opacity:0.994" fill="#4848f3" d="M 2501.5,1015.5 C 2464,1015.83 2426.66,1015.5 2389.5,1014.5C 2425.43,886.14 2430.93,756.473 2406,625.5C 2372.79,469.473 2292.62,344.306 2165.5,250C 2041.65,164.365 1904.32,127.698 1753.5,140C 1574.37,160.761 1430.2,241.594 1321,382.5C 1287,428.491 1260.83,478.825 1242.5,533.5C 1203.84,534.5 1165.17,534.833 1126.5,534.5C 1153.29,441.557 1197.79,358.557 1260,285.5C 1390.83,135.329 1555.99,50.4953 1755.5,31C 1933.8,19.1182 2095.13,65.1182 2239.5,169C 2382.98,280.016 2473.82,424.85 2512,603.5C 2529.96,692.116 2534.63,781.449 2526,871.5C 2521.83,920.209 2513.66,968.209 2501.5,1015.5 Z"/></g>
<g><path style="opacity:0.994" fill="#07111a" d="M 682.5,397.5 C 713.659,396.546 743.992,401.046 773.5,411C 781.719,413.791 789.386,417.624 796.5,422.5C 784.359,450.26 772.025,477.927 759.5,505.5C 735.219,492.524 709.886,489.691 683.5,497C 664.576,506.276 653.743,521.443 651,542.5C 649.587,562.797 649.087,583.131 649.5,603.5C 708.833,603.5 768.167,603.5 827.5,603.5C 824.494,567.053 828.328,531.386 839,496.5C 857.797,445.676 893.63,414.176 946.5,402C 988.256,394.494 1029.26,397.494 1069.5,411C 1077.76,413.796 1085.43,417.629 1092.5,422.5C 1080.42,450.315 1068.09,477.982 1055.5,505.5C 1033.35,493.863 1010.01,490.363 985.5,495C 969.581,499.918 958.414,510.085 952,525.5C 949.551,531.63 947.884,537.963 947,544.5C 945.621,564.136 945.121,583.803 945.5,603.5C 981.167,603.5 1016.83,603.5 1052.5,603.5C 1052.5,634.167 1052.5,664.833 1052.5,695.5C 1016.83,695.5 981.167,695.5 945.5,695.5C 945.5,802.5 945.5,909.5 945.5,1016.5C 906.167,1016.5 866.833,1016.5 827.5,1016.5C 827.5,909.5 827.5,802.5 827.5,695.5C 768.167,695.5 708.833,695.5 649.5,695.5C 649.5,802.5 649.5,909.5 649.5,1016.5C 609.927,1016.83 570.427,1016.5 531,1015.5C 530.5,908.834 530.333,802.167 530.5,695.5C 507.833,695.5 485.167,695.5 462.5,695.5C 462.333,665.165 462.5,634.832 463,604.5C 485.425,603.506 507.925,603.173 530.5,603.5C 529.391,574.238 531.558,545.238 537,516.5C 552.613,452.886 592.446,414.386 656.5,401C 665.273,399.5 673.94,398.334 682.5,397.5 Z"/></g>
<g><path style="opacity:0.994" fill="#07111a" d="M 218.5,591.5 C 256.049,589.245 292.383,594.745 327.5,608C 381.959,633.196 410.126,676.029 412,736.5C 412.667,829.5 412.667,922.5 412,1015.5C 375.239,1016.5 338.406,1016.83 301.5,1016.5C 301.667,995.831 301.5,975.164 301,954.5C 268.298,1001.86 222.964,1026.53 165,1028.5C 133.661,1028.71 104.494,1020.87 77.5,1005C 51.5391,987.272 36.0391,962.772 31,931.5C 22.7223,875.894 42.8889,834.394 91.5,807C 119.336,792.499 148.669,782.165 179.5,776C 209.48,770.48 239.48,765.146 269.5,760C 293.547,751.738 301.381,735.571 293,711.5C 288.042,700.543 279.875,693.043 268.5,689C 242.08,680.916 215.414,679.916 188.5,686C 149.253,695.038 114.753,712.871 85,739.5C 71.6892,712.379 58.5225,685.212 45.5,658C 82.4133,630.381 123.413,611.047 168.5,600C 185.146,596.171 201.813,593.337 218.5,591.5 Z M 290.5,829.5 C 291.5,829.5 292.5,829.5 293.5,829.5C 293.297,867.667 278.631,898.834 249.5,923C 223.072,941.463 194.739,945.463 164.5,935C 149.59,924.293 144.09,909.793 148,891.5C 151.521,875.972 160.354,864.472 174.5,857C 193.196,847.741 212.862,841.408 233.5,838C 252.582,834.743 271.582,831.91 290.5,829.5 Z"/></g>
<g><path style="opacity:0.988" fill="#07111a" d="M 1556.5,591.5 C 1579.51,589.759 1601.84,592.759 1623.5,600.5C 1624.64,602.421 1624.81,604.421 1624,606.5C 1617.27,641.307 1610.11,675.974 1602.5,710.5C 1566.21,689.354 1530.88,690.854 1496.5,715C 1479.06,729.689 1467.56,748.189 1462,770.5C 1459.31,781.006 1457.64,791.672 1457,802.5C 1456.83,873.737 1456.33,944.904 1455.5,1016C 1416.26,1016.83 1377.1,1016.66 1338,1015.5C 1337.5,878.167 1337.33,740.834 1337.5,603.5C 1374.5,603.5 1411.5,603.5 1448.5,603.5C 1448.33,625.836 1448.5,648.169 1449,670.5C 1462.72,638.784 1485.22,615.617 1516.5,601C 1529.6,596.224 1542.93,593.058 1556.5,591.5 Z"/></g>
<g><path style="opacity:0.991" fill="#07111a" d="M 1896.5,591.5 C 1936.35,588.624 1972.35,598.791 2004.5,622C 2018.23,633.311 2029.23,646.811 2037.5,662.5C 2083.5,602.221 2143.5,580.721 2217.5,598C 2265.62,613.453 2294.78,645.953 2305,695.5C 2306.47,703.442 2307.47,711.442 2308,719.5C 2308.83,818.403 2308.67,917.237 2307.5,1016C 2268.26,1016.83 2229.1,1016.66 2190,1015.5C 2189.98,926.141 2189.32,836.807 2188,747.5C 2179.31,706.47 2154.14,688.304 2112.5,693C 2087.37,700.788 2069.87,716.955 2060,741.5C 2054.63,755.001 2051.3,769.001 2050,783.5C 2049.83,861.07 2049.33,938.57 2048.5,1016C 2008.93,1016.83 1969.43,1016.66 1930,1015.5C 1929.98,925.807 1929.32,836.141 1928,746.5C 1919.2,705.676 1894.03,687.842 1852.5,693C 1827.6,701.562 1810.1,718.062 1800,742.5C 1794.62,756.36 1791.29,770.693 1790,785.5C 1789.67,862.167 1789.33,938.833 1789,1015.5C 1749.9,1016.66 1710.74,1016.83 1671.5,1016C 1670.5,878.57 1670.17,741.07 1670.5,603.5C 1708.83,603.5 1747.17,603.5 1785.5,603.5C 1785.33,623.169 1785.5,642.836 1786,662.5C 1810.84,620.323 1847.67,596.656 1896.5,591.5 Z"/></g>
<g><path style="opacity:0.992" fill="#06101a" d="M 1121.5,603.5 C 1161.17,603.5 1200.83,603.5 1240.5,603.5C 1240.67,740.834 1240.5,878.167 1240,1015.5C 1200.57,1016.5 1161.07,1016.83 1121.5,1016.5C 1121.5,878.833 1121.5,741.167 1121.5,603.5 Z"/></g>
<g><path style="opacity:0.098" fill="#393abf" d="M 2389.5,1014.5 C 2426.66,1015.5 2464,1015.83 2501.5,1015.5C 2464,1016.83 2426.33,1016.83 2388.5,1015.5C 2388.62,1014.89 2388.96,1014.56 2389.5,1014.5 Z"/></g>
</svg>
